<svg width="298" height="49" viewBox="0 0 298 49" fill="none" xmlns="http://www.w3.org/2000/svg">
<rect y="1.5" width="46" height="46" rx="12" fill="#EDEDED"/>
<circle cx="14" cy="15.5" r="8" fill="#1F61F7"/>
<circle cx="32" cy="15.5" r="8" fill="#1F61F7"/>
<circle cx="14" cy="33.5" r="8" fill="#1F61F7"/>
<circle cx="32" cy="33.5" r="8" fill="#1F61F7"/>
<path d="M60.76 39V11H73C76.04 11 78.7067 11.5867 81 12.76C83.2933 13.9333 85.08 15.56 86.36 17.64C87.64 19.72 88.28 22.1733 88.28 25C88.28 27.8 87.64 30.2533 86.36 32.36C85.08 34.44 83.2933 36.0667 81 37.24C78.7067 38.4133 76.04 39 73 39H60.76ZM65.96 34.6H72.76C74.84 34.6 76.6533 34.2 78.2 33.4C79.7467 32.6 80.9333 31.48 81.76 30.04C82.6133 28.6 83.04 26.92 83.04 25C83.04 23.0533 82.6133 21.3733 81.76 19.96C80.9333 18.52 79.7467 17.4 78.2 16.6C76.6533 15.8 74.84 15.4 72.76 15.4H65.96V34.6ZM93.8069 39V11H114.247V15.36H99.0069V34.64H114.807V39H93.8069ZM98.6069 26.92V22.64H112.527V26.92H98.6069ZM129.284 39.4C127.097 39.4 125.004 39.0933 123.004 38.48C121.004 37.84 119.417 37.0267 118.244 36.04L120.044 32C121.164 32.88 122.55 33.6133 124.204 34.2C125.857 34.7867 127.55 35.08 129.284 35.08C130.75 35.08 131.937 34.92 132.844 34.6C133.75 34.28 134.417 33.8533 134.844 33.32C135.27 32.76 135.484 32.1333 135.484 31.44C135.484 30.5867 135.177 29.9067 134.564 29.4C133.95 28.8667 133.15 28.4533 132.164 28.16C131.204 27.84 130.124 27.5467 128.924 27.28C127.75 27.0133 126.564 26.7067 125.364 26.36C124.19 25.9867 123.11 25.52 122.124 24.96C121.164 24.3733 120.377 23.6 119.764 22.64C119.15 21.68 118.844 20.4533 118.844 18.96C118.844 17.44 119.244 16.0533 120.044 14.8C120.87 13.52 122.11 12.5067 123.764 11.76C125.444 10.9867 127.564 10.6 130.124 10.6C131.804 10.6 133.47 10.8133 135.124 11.24C136.777 11.6667 138.217 12.28 139.444 13.08L137.804 17.12C136.55 16.3733 135.257 15.8267 133.924 15.48C132.59 15.1067 131.31 14.92 130.084 14.92C128.644 14.92 127.47 15.0933 126.564 15.44C125.684 15.7867 125.03 16.24 124.604 16.8C124.204 17.36 124.004 18 124.004 18.72C124.004 19.5733 124.297 20.2667 124.884 20.8C125.497 21.3067 126.284 21.7067 127.244 22C128.23 22.2933 129.324 22.5867 130.524 22.88C131.724 23.1467 132.91 23.4533 134.084 23.8C135.284 24.1467 136.364 24.6 137.324 25.16C138.31 25.72 139.097 26.48 139.684 27.44C140.297 28.4 140.604 29.6133 140.604 31.08C140.604 32.5733 140.19 33.96 139.364 35.24C138.564 36.4933 137.324 37.5067 135.644 38.28C133.964 39.0267 131.844 39.4 129.284 39.4ZM145.76 39V11H150.96V39H145.76ZM171.613 39.4C169.427 39.4 167.413 39.0533 165.573 38.36C163.76 37.64 162.173 36.64 160.813 35.36C159.453 34.0533 158.4 32.52 157.653 30.76C156.907 29 156.533 27.08 156.533 25C156.533 22.92 156.907 21 157.653 19.24C158.4 17.48 159.453 15.96 160.813 14.68C162.2 13.3733 163.813 12.3733 165.653 11.68C167.493 10.96 169.507 10.6 171.693 10.6C174.067 10.6 176.2 10.9867 178.093 11.76C180.013 12.5333 181.627 13.6667 182.933 15.16L179.653 18.36C178.56 17.2667 177.373 16.4667 176.093 15.96C174.84 15.4267 173.453 15.16 171.933 15.16C170.467 15.16 169.107 15.4 167.853 15.88C166.6 16.36 165.52 17.04 164.613 17.92C163.707 18.8 163 19.84 162.493 21.04C162.013 22.24 161.773 23.56 161.773 25C161.773 26.4133 162.013 27.72 162.493 28.92C163 30.12 163.707 31.1733 164.613 32.08C165.52 32.96 166.587 33.64 167.813 34.12C169.04 34.6 170.4 34.84 171.893 34.84C173.28 34.84 174.613 34.6267 175.893 34.2C177.2 33.7467 178.44 33 179.613 31.96L182.573 35.84C181.107 37.0133 179.4 37.9067 177.453 38.52C175.533 39.1067 173.587 39.4 171.613 39.4ZM182.573 35.84L177.653 35.16V24.68H182.573V35.84ZM189.432 39V11H193.712L211.272 32.56H209.152V11H214.312V39H210.032L192.472 17.44H194.592V39H189.432ZM222.935 39.28C222.028 39.28 221.255 38.9733 220.615 38.36C219.975 37.72 219.655 36.92 219.655 35.96C219.655 34.9467 219.975 34.1467 220.615 33.56C221.255 32.9467 222.028 32.64 222.935 32.64C223.841 32.64 224.615 32.9467 225.255 33.56C225.895 34.1467 226.215 34.9467 226.215 35.96C226.215 36.92 225.895 37.72 225.255 38.36C224.615 38.9733 223.841 39.28 222.935 39.28ZM231.1 39V17.64H235.86V23.32L235.02 21.64C235.74 20.2533 236.78 19.2 238.14 18.48C239.527 17.76 241.1 17.4 242.86 17.4C244.86 17.4 246.594 17.8933 248.06 18.88C249.554 19.8667 250.54 21.36 251.02 23.36L249.06 22.68C249.754 21.08 250.9 19.8 252.5 18.84C254.1 17.88 255.954 17.4 258.06 17.4C259.767 17.4 261.274 17.7333 262.58 18.4C263.914 19.0667 264.954 20.0933 265.7 21.48C266.447 22.84 266.82 24.6 266.82 26.76V39H261.82V27.4C261.82 25.5067 261.407 24.0933 260.58 23.16C259.754 22.2267 258.567 21.76 257.02 21.76C255.927 21.76 254.954 22 254.1 22.48C253.274 22.96 252.62 23.6667 252.14 24.6C251.687 25.5333 251.46 26.72 251.46 28.16V39H246.46V27.4C246.46 25.5067 246.047 24.0933 245.22 23.16C244.394 22.2267 243.207 21.76 241.66 21.76C240.567 21.76 239.594 22 238.74 22.48C237.914 22.96 237.26 23.6667 236.78 24.6C236.327 25.5333 236.1 26.72 236.1 28.16V39H231.1ZM282.289 39.28C280.235 39.28 278.382 38.8267 276.729 37.92C275.102 36.9867 273.822 35.7067 272.889 34.08C271.955 32.4533 271.489 30.5333 271.489 28.32C271.489 26.1067 271.955 24.1867 272.889 22.56C273.822 20.9333 275.102 19.6667 276.729 18.76C278.382 17.8533 280.235 17.4 282.289 17.4C284.075 17.4 285.675 17.8 287.089 18.6C288.502 19.3733 289.622 20.56 290.449 22.16C291.275 23.76 291.689 25.8133 291.689 28.32C291.689 30.8 291.289 32.8533 290.489 34.48C289.689 36.08 288.582 37.28 287.169 38.08C285.755 38.88 284.129 39.28 282.289 39.28ZM282.889 35C284.089 35 285.155 34.7333 286.089 34.2C287.049 33.6667 287.809 32.8933 288.369 31.88C288.955 30.8667 289.249 29.68 289.249 28.32C289.249 26.9333 288.955 25.7467 288.369 24.76C287.809 23.7467 287.049 22.9733 286.089 22.44C285.155 21.9067 284.089 21.64 282.889 21.64C281.689 21.64 280.609 21.9067 279.649 22.44C278.715 22.9733 277.955 23.7467 277.369 24.76C276.809 25.7467 276.529 26.9333 276.529 28.32C276.529 29.68 276.809 30.8667 277.369 31.88C277.955 32.8933 278.715 33.6667 279.649 34.2C280.609 34.7333 281.689 35 282.889 35ZM289.369 39V33.96L289.569 28.28L289.169 22.6V9.32H294.129V39H289.369Z" fill="#505050"/>
</svg>
